<svg width="19" height="22" viewBox="0 0 19 22" fill="none" xmlns="http://www.w3.org/2000/svg">
<path d="M17 9V5.8C17 4.11984 17 3.27976 16.673 2.63803C16.3854 2.07354 15.9265 1.6146 15.362 1.32698C14.7202 1 13.8802 1 12.2 1H5.8C4.11984 1 3.27976 1 2.63803 1.32698C2.07354 1.6146 1.6146 2.07354 1.32698 2.63803C1 3.27976 1 4.11984 1 5.8V16.2C1 17.8802 1 18.7202 1.32698 19.362C1.6146 19.9265 2.07354 20.3854 2.63803 20.673C3.27976 21 4.11984 21 5.8 21H9M9.5 10H5M6 14H5M13 6H5M13.9973 13.8306C13.1975 12.9216 11.8639 12.6771 10.8619 13.5094C9.85986 14.3418 9.71879 15.7335 10.5057 16.7179C11.2926 17.7024 13.9973 20 13.9973 20C13.9973 20 16.7019 17.7024 17.4888 16.7179C18.2757 15.7335 18.1519 14.3331 17.1326 13.5094C16.1134 12.6858 14.797 12.9216 13.9973 13.8306Z" stroke="" stroke-width="2" stroke-linecap="round" stroke-linejoin="round"/>
</svg>
